<mxfile host="app.diagrams.net" modified="2024-05-03T06:38:02.259Z" agent="Mozilla/5.0 (Windows NT 10.0; Win64; x64) AppleWebKit/537.36 (KHTML, like Gecko) Chrome/122.0.0.0 Safari/537.36" etag="bugNBHNVqcKNaj40KQ-n" version="24.3.1" type="device">
  <diagram name="Trang-1" id="wXz9gHV37ktJ6Uf2Rvrl">
    <mxGraphModel dx="1313" dy="503" grid="0" gridSize="10" guides="1" tooltips="1" connect="1" arrows="1" fold="1" page="0" pageScale="1" pageWidth="827" pageHeight="1169" math="0" shadow="0">
      <root>
        <mxCell id="0" />
        <mxCell id="1" parent="0" />
        <mxCell id="r6YV5uwidsqsS6mTbVun-7" value="" style="rounded=0;whiteSpace=wrap;html=1;fillColor=none;dashed=1;" vertex="1" parent="1">
          <mxGeometry x="221" y="178" width="152" height="228" as="geometry" />
        </mxCell>
        <mxCell id="r6YV5uwidsqsS6mTbVun-21" style="edgeStyle=orthogonalEdgeStyle;rounded=0;orthogonalLoop=1;jettySize=auto;html=1;exitX=0;exitY=0.5;exitDx=0;exitDy=0;startArrow=classic;startFill=1;" edge="1" parent="1" source="r6YV5uwidsqsS6mTbVun-1" target="r6YV5uwidsqsS6mTbVun-9">
          <mxGeometry relative="1" as="geometry" />
        </mxCell>
        <mxCell id="r6YV5uwidsqsS6mTbVun-1" value="ChatListView" style="rounded=1;whiteSpace=wrap;html=1;" vertex="1" parent="1">
          <mxGeometry x="238" y="196" width="120" height="39" as="geometry" />
        </mxCell>
        <mxCell id="r6YV5uwidsqsS6mTbVun-22" style="edgeStyle=orthogonalEdgeStyle;rounded=0;orthogonalLoop=1;jettySize=auto;html=1;exitX=0;exitY=0.5;exitDx=0;exitDy=0;entryX=1;entryY=0.5;entryDx=0;entryDy=0;startArrow=classic;startFill=1;" edge="1" parent="1" source="r6YV5uwidsqsS6mTbVun-2" target="r6YV5uwidsqsS6mTbVun-10">
          <mxGeometry relative="1" as="geometry" />
        </mxCell>
        <mxCell id="r6YV5uwidsqsS6mTbVun-2" value="ConversationView" style="rounded=1;whiteSpace=wrap;html=1;" vertex="1" parent="1">
          <mxGeometry x="238" y="247" width="120" height="39" as="geometry" />
        </mxCell>
        <mxCell id="r6YV5uwidsqsS6mTbVun-23" style="edgeStyle=orthogonalEdgeStyle;rounded=0;orthogonalLoop=1;jettySize=auto;html=1;exitX=0;exitY=0.5;exitDx=0;exitDy=0;startArrow=classic;startFill=1;" edge="1" parent="1" source="r6YV5uwidsqsS6mTbVun-3" target="r6YV5uwidsqsS6mTbVun-11">
          <mxGeometry relative="1" as="geometry" />
        </mxCell>
        <mxCell id="r6YV5uwidsqsS6mTbVun-3" value="PersionalInforView" style="rounded=1;whiteSpace=wrap;html=1;" vertex="1" parent="1">
          <mxGeometry x="238" y="298" width="120" height="39" as="geometry" />
        </mxCell>
        <mxCell id="r6YV5uwidsqsS6mTbVun-24" style="edgeStyle=orthogonalEdgeStyle;rounded=0;orthogonalLoop=1;jettySize=auto;html=1;exitX=0;exitY=0.5;exitDx=0;exitDy=0;entryX=1;entryY=0.5;entryDx=0;entryDy=0;startArrow=classic;startFill=1;" edge="1" parent="1" source="r6YV5uwidsqsS6mTbVun-4" target="r6YV5uwidsqsS6mTbVun-12">
          <mxGeometry relative="1" as="geometry" />
        </mxCell>
        <mxCell id="r6YV5uwidsqsS6mTbVun-4" value="LogginView" style="rounded=1;whiteSpace=wrap;html=1;" vertex="1" parent="1">
          <mxGeometry x="238" y="349" width="120" height="39" as="geometry" />
        </mxCell>
        <mxCell id="r6YV5uwidsqsS6mTbVun-8" value="UI file (.qml)" style="text;html=1;align=center;verticalAlign=middle;whiteSpace=wrap;rounded=0;" vertex="1" parent="1">
          <mxGeometry x="221" y="146" width="152" height="30" as="geometry" />
        </mxCell>
        <mxCell id="r6YV5uwidsqsS6mTbVun-29" style="edgeStyle=orthogonalEdgeStyle;rounded=0;orthogonalLoop=1;jettySize=auto;html=1;exitX=0;exitY=0.5;exitDx=0;exitDy=0;entryX=1;entryY=0.5;entryDx=0;entryDy=0;" edge="1" parent="1" source="r6YV5uwidsqsS6mTbVun-9" target="r6YV5uwidsqsS6mTbVun-16">
          <mxGeometry relative="1" as="geometry" />
        </mxCell>
        <mxCell id="r6YV5uwidsqsS6mTbVun-9" value="ChatListVM" style="rounded=1;whiteSpace=wrap;html=1;" vertex="1" parent="1">
          <mxGeometry x="-14" y="196" width="120" height="39" as="geometry" />
        </mxCell>
        <mxCell id="r6YV5uwidsqsS6mTbVun-30" style="edgeStyle=orthogonalEdgeStyle;rounded=0;orthogonalLoop=1;jettySize=auto;html=1;exitX=0;exitY=0.5;exitDx=0;exitDy=0;" edge="1" parent="1" source="r6YV5uwidsqsS6mTbVun-10" target="r6YV5uwidsqsS6mTbVun-17">
          <mxGeometry relative="1" as="geometry" />
        </mxCell>
        <mxCell id="r6YV5uwidsqsS6mTbVun-10" value="ConversationVM" style="rounded=1;whiteSpace=wrap;html=1;" vertex="1" parent="1">
          <mxGeometry x="-14" y="247" width="120" height="39" as="geometry" />
        </mxCell>
        <mxCell id="r6YV5uwidsqsS6mTbVun-31" style="edgeStyle=orthogonalEdgeStyle;rounded=0;orthogonalLoop=1;jettySize=auto;html=1;exitX=0;exitY=0.5;exitDx=0;exitDy=0;entryX=1;entryY=0.5;entryDx=0;entryDy=0;" edge="1" parent="1" source="r6YV5uwidsqsS6mTbVun-11" target="r6YV5uwidsqsS6mTbVun-18">
          <mxGeometry relative="1" as="geometry" />
        </mxCell>
        <mxCell id="r6YV5uwidsqsS6mTbVun-11" value="PersionalInforVM" style="rounded=1;whiteSpace=wrap;html=1;" vertex="1" parent="1">
          <mxGeometry x="-14" y="298" width="120" height="39" as="geometry" />
        </mxCell>
        <mxCell id="r6YV5uwidsqsS6mTbVun-32" style="edgeStyle=orthogonalEdgeStyle;rounded=0;orthogonalLoop=1;jettySize=auto;html=1;exitX=0;exitY=0.5;exitDx=0;exitDy=0;entryX=1;entryY=0.5;entryDx=0;entryDy=0;" edge="1" parent="1" source="r6YV5uwidsqsS6mTbVun-12" target="r6YV5uwidsqsS6mTbVun-19">
          <mxGeometry relative="1" as="geometry" />
        </mxCell>
        <mxCell id="r6YV5uwidsqsS6mTbVun-12" value="LogginVM" style="rounded=1;whiteSpace=wrap;html=1;" vertex="1" parent="1">
          <mxGeometry x="-14" y="349" width="120" height="39" as="geometry" />
        </mxCell>
        <mxCell id="r6YV5uwidsqsS6mTbVun-15" value="" style="rounded=0;whiteSpace=wrap;html=1;fillColor=none;movable=1;resizable=1;rotatable=1;deletable=1;editable=1;locked=0;connectable=1;dashed=1;" vertex="1" parent="1">
          <mxGeometry x="-282" y="178" width="408" height="228" as="geometry" />
        </mxCell>
        <mxCell id="r6YV5uwidsqsS6mTbVun-16" value="ChatList_Model" style="rounded=1;whiteSpace=wrap;html=1;" vertex="1" parent="1">
          <mxGeometry x="-265" y="196" width="120" height="39" as="geometry" />
        </mxCell>
        <mxCell id="r6YV5uwidsqsS6mTbVun-17" value="Conversation_Model" style="rounded=1;whiteSpace=wrap;html=1;" vertex="1" parent="1">
          <mxGeometry x="-265" y="247" width="120" height="39" as="geometry" />
        </mxCell>
        <mxCell id="r6YV5uwidsqsS6mTbVun-18" value="PersionalInfor_Model" style="rounded=1;whiteSpace=wrap;html=1;" vertex="1" parent="1">
          <mxGeometry x="-265" y="298" width="120" height="39" as="geometry" />
        </mxCell>
        <mxCell id="r6YV5uwidsqsS6mTbVun-19" value="Loggin_Model" style="rounded=1;whiteSpace=wrap;html=1;" vertex="1" parent="1">
          <mxGeometry x="-265" y="349" width="120" height="39" as="geometry" />
        </mxCell>
        <mxCell id="r6YV5uwidsqsS6mTbVun-20" value="Backend file (.cpp/.h)" style="text;html=1;align=center;verticalAlign=middle;whiteSpace=wrap;rounded=0;" vertex="1" parent="1">
          <mxGeometry x="-154" y="143" width="152" height="30" as="geometry" />
        </mxCell>
        <mxCell id="r6YV5uwidsqsS6mTbVun-26" value="Data Binding" style="rounded=0;whiteSpace=wrap;html=1;rotation=90;" vertex="1" parent="1">
          <mxGeometry x="85" y="275" width="170" height="34" as="geometry" />
        </mxCell>
        <mxCell id="r6YV5uwidsqsS6mTbVun-33" value="Holds" style="rounded=0;whiteSpace=wrap;html=1;rotation=90;" vertex="1" parent="1">
          <mxGeometry x="-163" y="275" width="170" height="34" as="geometry" />
        </mxCell>
        <mxCell id="r6YV5uwidsqsS6mTbVun-34" value="Model" style="text;html=1;align=center;verticalAlign=middle;whiteSpace=wrap;rounded=0;fillColor=#dae8fc;strokeColor=#6c8ebf;" vertex="1" parent="1">
          <mxGeometry x="-281" y="422" width="152" height="30" as="geometry" />
        </mxCell>
        <mxCell id="r6YV5uwidsqsS6mTbVun-36" value="View Model" style="text;html=1;align=center;verticalAlign=middle;whiteSpace=wrap;rounded=0;fillColor=#dae8fc;strokeColor=#6c8ebf;" vertex="1" parent="1">
          <mxGeometry x="-30" y="422" width="152" height="30" as="geometry" />
        </mxCell>
        <mxCell id="r6YV5uwidsqsS6mTbVun-37" value="View" style="text;html=1;align=center;verticalAlign=middle;whiteSpace=wrap;rounded=0;fillColor=#dae8fc;strokeColor=#6c8ebf;" vertex="1" parent="1">
          <mxGeometry x="221" y="422" width="152" height="30" as="geometry" />
        </mxCell>
      </root>
    </mxGraphModel>
  </diagram>
</mxfile>
